<?xml version="1.0" encoding="UTF-8"?>
<svg width="16px" height="14px" viewBox="0 0 16 14" version="1.1" xmlns="http://www.w3.org/2000/svg" xmlns:xlink="http://www.w3.org/1999/xlink">
    <!-- Generator: Sketch 52 (66869) - http://www.bohemiancoding.com/sketch -->
    <title>icons/dark/list-rich</title>
    <desc>Created with Sketch.</desc>
    <defs>
        <path d="M0,0 L0,6 L6,6 L6,0 L0,0 Z M8,0 L8,2 L16,2 L16,0 L8,0 Z M8,4 L8,6 L14,6 L14,4 L8,4 Z M0,8 L0,14 L6,14 L6,8 L0,8 Z M8,8 L8,10 L16,10 L16,8 L8,8 Z M8,12 L8,14 L14,14 L14,12 L8,12 Z" id="path-1"></path>
    </defs>
    <g id="Symbols" stroke="none" stroke-width="1" fill="none" fill-rule="evenodd">
        <g id="icons/list-rich" transform="translate(-1.000000, -2.000000)">
            <g id="icons/dark/list-rich" transform="translate(1.000000, 2.000000)">
                <mask id="mask-2" fill="white">
                    <use xlink:href="#path-1"></use>
                </mask>
                <use id="Mask" fill="#212B36" fill-rule="nonzero" xlink:href="#path-1"></use>
                <g id="color/main" mask="url(#mask-2)" fill="#212B36">
                    <g transform="translate(-1.000000, -2.000000)">
                        <rect x="0" y="0" width="18" height="18" rx="4"></rect>
                    </g>
                </g>
            </g>
        </g>
    </g>
</svg>