<?xml version="1.0" encoding="UTF-8"?>
<svg width="16px" height="16px" viewBox="0 0 16 16" version="1.1" xmlns="http://www.w3.org/2000/svg" xmlns:xlink="http://www.w3.org/1999/xlink">
    <!-- Generator: Sketch 52 (66869) - http://www.bohemiancoding.com/sketch -->
    <title>icons/dark/pie-chart</title>
    <desc>Created with Sketch.</desc>
    <defs>
        <path d="M7,1.94289029e-16 C5.06,1.94289029e-16 3.32,0.8 2.06,2.06 L8,8 L8,0.06 C7.68,0.02 7.34,-1.94289029e-16 7,1.94289029e-16 Z M10,2.12 L10,8.94 L4.56,14.38 C5.78,15.38 7.3,16 9,16 C12.86,16 16,12.86 16,9 C16,5.48 13.38,2.62 10,2.12 Z M1.82,4.74 C0.7,5.82 1.11022302e-16,7.32 1.11022302e-16,9 C1.11022302e-16,10.92 0.92,12.58 2.32,13.68 L6.58,9.42 L1.82,4.74 Z" id="path-1"></path>
    </defs>
    <g id="Symbols" stroke="none" stroke-width="1" fill="none" fill-rule="evenodd">
        <g id="icons/pie-chart" transform="translate(-1.000000, -1.000000)">
            <g id="icons/dark/pie-chart" transform="translate(1.000000, 1.000000)">
                <mask id="mask-2" fill="white">
                    <use xlink:href="#path-1"></use>
                </mask>
                <use id="Mask" fill="#212B36" fill-rule="nonzero" xlink:href="#path-1"></use>
                <g id="color/main" mask="url(#mask-2)" fill="#212B36">
                    <g transform="translate(-1.000000, -1.000000)">
                        <rect x="0" y="0" width="18" height="18" rx="4"></rect>
                    </g>
                </g>
            </g>
        </g>
    </g>
</svg>